<svg width="52" height="52" viewBox="0 0 52 52" fill="none" xmlns="http://www.w3.org/2000/svg">
<path d="M26.0321 38.8143C18.9674 38.8143 13.2202 33.0667 13.2202 26.002C13.2202 18.9377 18.9674 13.1909 26.0321 13.1909C33.0968 13.1909 38.844 18.9377 38.844 26.002C38.844 33.0667 33.0968 38.8143 26.0321 38.8143ZM26.0321 14.8159C19.8636 14.8159 14.8452 19.8343 14.8452 26.002C14.8452 32.1705 19.864 37.1893 26.0321 37.1893C32.2002 37.1893 37.219 32.1705 37.219 26.002C37.219 19.8343 32.2006 14.8159 26.0321 14.8159Z" fill="#F8F8F8"/>
<path d="M26.0321 46.3474C25.5836 46.3474 25.2196 45.9834 25.2196 45.5349V41.1978C25.2196 40.7489 25.5836 40.3853 26.0321 40.3853C26.4806 40.3853 26.8446 40.7489 26.8446 41.1978V45.5349C26.8446 45.983 26.481 46.3474 26.0321 46.3474Z" fill="#F8F8F8"/>
<path d="M26.0321 11.62C25.5836 11.62 25.2196 11.256 25.2196 10.8075V6.46994C25.2196 6.02144 25.5836 5.65744 26.0321 5.65744C26.4806 5.65744 26.8446 6.02144 26.8446 6.46994V10.8075C26.8446 11.2564 26.481 11.62 26.0321 11.62Z" fill="#F8F8F8"/>
<path d="M45.5646 26.8149H41.2275C40.779 26.8149 40.415 26.4509 40.415 26.0024C40.415 25.5539 40.779 25.1899 41.2275 25.1899H45.5646C46.0131 25.1899 46.3771 25.5539 46.3771 26.0024C46.3771 26.4505 46.0135 26.8149 45.5646 26.8149Z" fill="#F8F8F8"/>
<path d="M10.8371 26.8149H6.5C6.0515 26.8149 5.6875 26.4509 5.6875 26.0024C5.6875 25.5539 6.0515 25.1899 6.5 25.1899H10.8371C11.2856 25.1899 11.6496 25.5539 11.6496 26.0024C11.6496 26.4505 11.2856 26.8149 10.8371 26.8149Z" fill="#F8F8F8"/>
<path d="M39.843 40.6266C39.635 40.6266 39.4274 40.5474 39.2685 40.3886L36.2022 37.3218C35.8849 37.0045 35.8849 36.4902 36.2022 36.1729C36.5194 35.8556 37.0338 35.8556 37.351 36.1729L40.4174 39.2397C40.7347 39.557 40.7347 40.0713 40.4174 40.3886C40.259 40.5474 40.051 40.6266 39.843 40.6266Z" fill="#F8F8F8"/>
<path d="M15.2872 16.0704C15.0792 16.0704 14.8716 15.9912 14.7128 15.8324L11.6464 12.7656C11.3291 12.4483 11.3291 11.9336 11.6464 11.6167C11.9637 11.2994 12.478 11.2994 12.7953 11.6167L15.8616 14.6835C16.1789 15.0008 16.1789 15.5155 15.8616 15.8324C15.7028 15.9912 15.4952 16.0704 15.2872 16.0704Z" fill="#F8F8F8"/>
<path d="M36.7766 16.0704C36.5686 16.0704 36.361 15.9912 36.2022 15.8324C35.8849 15.5151 35.8849 15.0004 36.2022 14.6835L39.2694 11.6167C39.5866 11.2994 40.1009 11.2994 40.4182 11.6167C40.7355 11.934 40.7355 12.4487 40.4182 12.7656L37.351 15.8324C37.1926 15.9912 36.9846 16.0704 36.7766 16.0704Z" fill="#F8F8F8"/>
<path d="M12.2208 40.6266C12.0128 40.6266 11.8052 40.5474 11.6464 40.3886C11.3291 40.0713 11.3291 39.5561 11.6464 39.2397L14.7132 36.1729C15.0304 35.8556 15.5448 35.8556 15.862 36.1729C16.1793 36.4902 16.1793 37.0053 15.862 37.3218L12.7953 40.3886C12.6364 40.5474 12.4288 40.6266 12.2208 40.6266Z" fill="#F8F8F8"/>
</svg>